<?xml version="1.0" encoding="utf-8"?>
<!DOCTYPE svg
  PUBLIC '-//W3C//DTD SVG 1.0//EN'
  'http://www.w3.org/TR/2001/REC-SVG-20010904/DTD/svg10.dtd'>
<svg height="595.275590551181" preserveAspectRatio="xMinYMin meet" version="1.0" viewBox="0 0 841 595" width="841.8897637795275" xmlns="http://www.w3.org/2000/svg" xmlns:xlink="http://www.w3.org/1999/xlink">
	<title>...</title>
	<desc>...</desc>
	<clipPath id="clip">
		<rect height="595.275590551181" width="841.8897637795275" x="0" y="0"/>
	</clipPath>
	<g id="group" style="clip-path: url(#clip)" transform="scale(1,-1) translate(0,-595)">
		<g transform="">
			<polygon points="69.211537 530.185925, 369.176419 530.185925, 369.176419 543.747047, 391.778289 521.145177, 369.176419 498.543307, 369.176419 512.104429, 69.211537 512.104429" style="stroke-width: 1; stroke-linecap: round; fill: rgb(0%,0%,100%); stroke: rgb(0%,0%,100%);"/>
			<polygon points="391.462974 530.185925, 614.806429 530.185925, 614.806429 543.747047, 637.408299 521.145177, 614.806429 498.543307, 614.806429 512.104429, 391.462974 512.104429" style="stroke-width: 1; stroke-linecap: round; fill: rgb(67%,84%,90%); stroke: rgb(67%,84%,90%);"/>
			<polygon points="206.373352 396.248917, 245.257813 396.248917, 245.257813 409.810039, 267.859683 387.208169, 245.257813 364.606299, 245.257813 378.167421, 206.373352 378.167421" style="stroke-width: 1; stroke-linecap: round; fill: rgb(0%,0%,100%); stroke: rgb(0%,0%,100%);"/>
			<polygon points="657.273113 396.248917, 768.995228 396.248917, 768.995228 409.810039, 791.597098 387.208169, 768.995228 364.606299, 768.995228 378.167421, 657.273113 378.167421" style="stroke-width: 1; stroke-linecap: round; fill: rgb(67%,84%,90%); stroke: rgb(67%,84%,90%);"/>
			<polygon points="383.264797 217.108169, 67.218874 217.108169, 67.218874 230.669291, 44.617004 208.067421, 67.218874 185.465551, 67.218874 199.026673, 383.264797 199.026673" style="stroke-width: 1; stroke-linecap: round; fill: rgb(0%,0%,100%); stroke: rgb(0%,0%,100%);"/>
			<polygon points="454.841193 262.311909, 528.725565 262.311909, 528.725565 275.873031, 551.327435 253.271161, 528.725565 230.669291, 528.725565 244.230413, 454.841193 244.230413" style="stroke-width: 1; stroke-linecap: round; fill: rgb(67%,84%,90%); stroke: rgb(67%,84%,90%);"/>
			<polygon points="627.633549 262.311909, 777.193406 262.311909, 777.193406 275.873031, 799.795276 253.271161, 777.193406 230.669291, 777.193406 244.230413, 627.633549 244.230413" style="stroke-width: 1; stroke-linecap: round; fill: rgb(0%,0%,100%); stroke: rgb(0%,0%,100%);"/>
			<polygon points="42.094488 128.374902, 143.411224 128.374902, 143.411224 141.936024, 166.013094 119.334154, 143.411224 96.732283, 143.411224 110.293406, 42.094488 110.293406" style="stroke-width: 1; stroke-linecap: round; fill: rgb(0%,0%,100%); stroke: rgb(0%,0%,100%);"/>
			<polygon points="319.255950 83.171161, 247.263464 83.171161, 247.263464 96.732283, 224.661594 74.130413, 247.263464 51.528543, 247.263464 65.089665, 319.255950 65.089665" style="stroke-width: 1; stroke-linecap: round; fill: rgb(67%,84%,90%); stroke: rgb(67%,84%,90%);"/>
			<polygon points="426.778200 83.171161, 341.542505 83.171161, 341.542505 96.732283, 318.940635 74.130413, 341.542505 51.528543, 341.542505 65.089665, 426.778200 65.089665" style="stroke-width: 1; stroke-linecap: round; fill: rgb(0%,0%,100%); stroke: rgb(0%,0%,100%);"/>
			<polygon points="716.236928 83.171161, 670.730862 83.171161, 670.730862 96.732283, 648.128992 74.130413, 670.730862 51.528543, 670.730862 65.089665, 716.236928 65.089665" style="stroke-width: 1; stroke-linecap: round; fill: rgb(67%,84%,90%); stroke: rgb(67%,84%,90%);"/>
			<path d="M 42.094488,498.543307 L 799.795276,498.543307 Z" style="stroke-width: 1; stroke-linecap: butt; stroke: rgb(0%,0%,0%);"/>
			<path d="M 42.094488,453.339567 L 42.094488,543.747047 Z" style="stroke-width: 1; stroke-linecap: butt; stroke: rgb(0%,0%,0%);"/>
			<path d="M 42.094488,364.606299 L 799.795276,364.606299 Z" style="stroke-width: 1; stroke-linecap: butt; stroke: rgb(0%,0%,0%);"/>
			<path d="M 42.094488,319.402559 L 42.094488,409.810039 Z" style="stroke-width: 1; stroke-linecap: butt; stroke: rgb(0%,0%,0%);"/>
			<path d="M 42.094488,230.669291 L 799.795276,230.669291 Z" style="stroke-width: 1; stroke-linecap: butt; stroke: rgb(0%,0%,0%);"/>
			<path d="M 42.094488,185.465551 L 42.094488,275.873031 Z" style="stroke-width: 1; stroke-linecap: butt; stroke: rgb(0%,0%,0%);"/>
			<path d="M 798.849332,51.528543 L 798.849332,141.936024 Z" style="stroke-width: 1; stroke-linecap: butt; stroke: rgb(0%,0%,0%);"/>
			<path d="M 42.094488,96.732283 L 798.849332,96.732283 Z" style="stroke-width: 1; stroke-linecap: butt; stroke: rgb(0%,0%,0%);"/>
			<path d="M 42.094488,51.528543 L 42.094488,141.936024 Z" style="stroke-width: 1; stroke-linecap: butt; stroke: rgb(0%,0%,0%);"/>
			<g transform=" matrix(1.000000, 0.000000, -0.000000, 1.000000, 69.211537, 543.747047)">
				<text style="font-family: Helvetica; font-size: 14px; fill: rgb(0%,0%,0%);" transform="translate(0,0) scale(1,-1)" x="0" y="0">YP_RS22210</text>
			</g>
			<g transform=" matrix(1.000000, 0.000000, -0.000000, 1.000000, 391.462974, 543.747047)">
				<text style="font-family: Helvetica; font-size: 14px; fill: rgb(0%,0%,0%);" transform="translate(0,0) scale(1,-1)" x="0" y="0">YP_RS22215</text>
			</g>
			<g transform=" matrix(1.000000, 0.000000, -0.000000, 1.000000, 206.373352, 409.810039)">
				<text style="font-family: Helvetica; font-size: 14px; fill: rgb(0%,0%,0%);" transform="translate(0,0) scale(1,-1)" x="0" y="0">YP_RS22220</text>
			</g>
			<g transform=" matrix(1.000000, 0.000000, -0.000000, 1.000000, 657.273113, 409.810039)">
				<text style="font-family: Helvetica; font-size: 14px; fill: rgb(0%,0%,0%);" transform="translate(0,0) scale(1,-1)" x="0" y="0">YP_RS22225</text>
			</g>
			<g transform=" matrix(-1.000000, 0.000000, -0.000000, -1.000000, 383.264797, 185.465551)">
				<text style="font-family: Helvetica; font-size: 14px; fill: rgb(0%,0%,0%);" transform="translate(0,0) scale(1,-1)" x="0" y="0">YP_RS22230</text>
			</g>
			<g transform=" matrix(1.000000, 0.000000, -0.000000, 1.000000, 454.841193, 275.873031)">
				<text style="font-family: Helvetica; font-size: 14px; fill: rgb(0%,0%,0%);" transform="translate(0,0) scale(1,-1)" x="0" y="0">YP_RS22235</text>
			</g>
			<g transform=" matrix(1.000000, 0.000000, -0.000000, 1.000000, 627.633549, 275.873031)">
				<text style="font-family: Helvetica; font-size: 14px; fill: rgb(0%,0%,0%);" transform="translate(0,0) scale(1,-1)" x="0" y="0">YP_RS22240</text>
			</g>
			<g transform=" matrix(1.000000, 0.000000, -0.000000, 1.000000, 42.094488, 141.936024)">
				<text style="font-family: Helvetica; font-size: 14px; fill: rgb(0%,0%,0%);" transform="translate(0,0) scale(1,-1)" x="0" y="0">YP_RS22240</text>
			</g>
			<g transform=" matrix(-1.000000, 0.000000, -0.000000, -1.000000, 319.255950, 51.528543)">
				<text style="font-family: Helvetica; font-size: 14px; fill: rgb(0%,0%,0%);" transform="translate(0,0) scale(1,-1)" x="0" y="0">YP_RS22245</text>
			</g>
			<g transform=" matrix(-1.000000, 0.000000, -0.000000, -1.000000, 426.778200, 51.528543)">
				<text style="font-family: Helvetica; font-size: 14px; fill: rgb(0%,0%,0%);" transform="translate(0,0) scale(1,-1)" x="0" y="0">YP_RS22250</text>
			</g>
			<g transform=" matrix(-1.000000, 0.000000, -0.000000, -1.000000, 716.236928, 51.528543)">
				<text style="font-family: Helvetica; font-size: 14px; fill: rgb(0%,0%,0%);" transform="translate(0,0) scale(1,-1)" x="0" y="0">YP_RS22255</text>
			</g>
		</g>
	</g>
</svg>
