<?xml version="1.0" encoding="utf-8"?>
<!DOCTYPE svg
  PUBLIC '-//W3C//DTD SVG 1.0//EN'
  'http://www.w3.org/TR/2001/REC-SVG-20010904/DTD/svg10.dtd'>
<svg height="566.9291338582677" preserveAspectRatio="xMinYMin meet" version="1.0" viewBox="0 0 566 566" width="566.9291338582677" xmlns="http://www.w3.org/2000/svg" xmlns:xlink="http://www.w3.org/1999/xlink">
	<title>...</title>
	<desc>...</desc>
	<clipPath id="clip">
		<rect height="566.9291338582677" width="566.9291338582677" x="0" y="0"/>
	</clipPath>
	<g id="group" style="clip-path: url(#clip)" transform="scale(1,-1) translate(0,-566)">
		<g transform="">
			<path d="M 401.965873 451.587722 L 400.315144 452.739189 L 398.653227 453.874448 L 396.980282 454.993391 L 395.296467 456.095911 L 393.601945 457.181903 L 391.896879 458.251262 L 390.181430 459.303886 L 388.455764 460.339674 L 386.720045 461.358528 L 384.974440 462.360349 L 383.219116 463.345041 L 381.454241 464.312511 L 379.679984 465.262665 L 377.896515 466.195413 L 376.104004 467.110666 L 374.302624 468.008335 L 372.492546 468.888335 L 370.673944 469.750582 L 368.846993 470.594993 L 367.011866 471.421487 L 365.168740 472.229985 L 363.317792 473.020410 L 361.459198 473.792685 L 359.593136 474.546738 L 357.719785 475.282495 L 355.839325 475.999887 L 353.951935 476.698844 L 352.057797 477.379300 L 350.157091 478.041190 L 348.249999 478.684450 L 346.336705 479.309019 L 344.417391 479.914836 L 342.492241 480.501844 L 340.561439 481.069987 L 338.625171 481.619211 L 336.683621 482.149461 L 334.736975 482.660689 L 332.785421 483.152845 L 330.829145 483.625881 L 328.868333 484.079753 L 326.903174 484.514417 L 324.933857 484.929832 L 322.960568 485.325957 L 320.983499 485.702755 L 319.002837 486.060190 L 317.018772 486.398227 L 315.031495 486.716834 L 313.041195 487.015981 L 311.048063 487.295638 L 309.052291 487.555780 L 307.054069 487.796381 L 305.053588 488.017419 L 303.051040 488.218871 L 301.046616 488.400719 L 299.040510 488.562946 L 297.032912 488.705535 L 295.024014 488.828474 L 296.099312 507.932093 L 298.295083 507.797718 L 300.489435 507.641865 L 302.682156 507.464547 L 304.873037 507.265783 L 307.061869 507.045591 L 309.248441 506.803992 L 311.432544 506.541009 L 313.613970 506.256668 L 315.792509 505.950996 L 317.967953 505.624022 L 320.140093 505.275777 L 322.308722 504.906294 L 324.473632 504.515610 L 326.634615 504.103761 L 328.791465 503.670787 L 330.943975 503.216729 L 333.091939 502.741631 L 335.235152 502.245539 L 337.373408 501.728499 L 339.506502 501.190561 L 341.634230 500.631777 L 343.756389 500.052201 L 345.872776 499.451887 L 347.983187 498.830894 L 350.087421 498.189280 L 352.185276 497.527107 L 354.276551 496.844439 L 356.361047 496.141341 L 358.438562 495.417880 L 360.508900 494.674126 L 362.571861 493.910149 L 364.627248 493.126023 L 366.674863 492.321823 L 368.714512 491.497626 L 370.745999 490.653511 L 372.769129 489.789559 L 374.783708 488.905852 L 376.789544 488.002474 L 378.786445 487.079514 L 380.774219 486.137058 L 382.752676 485.175197 L 384.721626 484.194024 L 386.680882 483.193632 L 388.630255 482.174116 L 390.569560 481.135575 L 392.498609 480.078108 L 394.417219 479.001817 L 396.325206 477.906803 L 398.222387 476.793173 L 400.108580 475.661032 L 401.983605 474.510489 L 403.847283 473.341655 L 405.699435 472.154641 L 407.539883 470.949561 L 409.368451 469.726530 L 411.184965 468.485665 L 412.989251 467.227086 L 421.256784 478.956608 L 421.335903 478.608046 L 421.414417 478.259550 L 421.492328 477.911120 L 421.569635 477.562759 L 421.646338 477.214465 L 421.722438 476.866241 L 421.797935 476.518088 L 421.872829 476.170005 L 421.947120 475.821995 L 422.020809 475.474058 L 422.093896 475.126195 L 422.166382 474.778406 L 422.238265 474.430694 L 422.309548 474.083058 L 422.380229 473.735499 L 422.450310 473.388020 L 422.519790 473.040619 L 422.588670 472.693299 L 422.656950 472.346060 L 422.724630 471.998904 L 422.791711 471.651830 L 422.858193 471.304840 L 422.924076 470.957935 L 422.989360 470.611116 L 423.054045 470.264383 L 423.118133 469.917738 L 423.181623 469.571182 L 423.244515 469.224714 L 423.306810 468.878337 L 423.368508 468.532051 L 423.429610 468.185858 L 423.490115 467.839757 L 423.550023 467.493749 L 423.609336 467.147837 L 423.668054 466.802020 L 423.726176 466.456300 L 423.783703 466.110677 L 423.840635 465.765153 L 423.896973 465.419727 L 423.952717 465.074402 L 424.007867 464.729178 L 424.062424 464.384056 L 424.116387 464.039036 L 424.169757 463.694120 L 424.222535 463.349309 L 424.274720 463.004603 L 424.326313 462.660004 L 424.377315 462.315511 L 424.427725 461.971127 L 424.477544 461.626852 L 424.526772 461.282687 L 424.575409 460.938632 L 424.623456 460.594690 L 424.670914 460.250859 L 424.717781 459.907143 L 424.764060 459.563540 L 424.809749 459.220053 L 424.854850 458.876682 L 424.899362 458.533428 L 424.943287 458.190292 L 424.986623 457.847274 L 425.029372 457.504376 L 425.071535 457.161599 L 425.113110 456.818943 L 425.154099 456.476409 L 425.194502 456.133999 L 425.234318 455.791712 L 425.273550 455.449551 L 425.312196 455.107515 L 425.350258 454.765606 L 425.387735 454.423825 L 425.424628 454.082171 L 425.460937 453.740648 L 425.496662 453.399254 L 425.531805 453.057992 L 425.566364 452.716861 L 425.600341 452.375863 L 425.633736 452.034999 L 425.666550 451.694269 L 425.698781 451.353675 L 425.730432 451.013217 L 425.761502 450.672897 L 425.791991 450.332714 L 425.821900 449.992670 L 425.851230 449.652766 L 425.879980 449.313003 L 425.908151 448.973381 L 425.935743 448.633901 L 425.962757 448.294565 L 425.989193 447.955373 L 426.015051 447.616326 L 426.040332 447.277424 L 426.065036 446.938670 L 426.089164 446.600063 L 426.112715 446.261604 L 426.135691 445.923294 L 426.158091 445.585135 L 426.179915 445.247127 L 426.201166 444.909271 L 426.221841 444.571567 L 426.221841 444.571567 L 425.884325 444.550903 L 425.547031 444.529688 L 425.209961 444.507922 L 424.873114 444.485607 L 424.536493 444.462742 L 424.200096 444.439328 L 423.863927 444.415365 L 423.527984 444.390854 L 423.192269 444.365796 L 422.856784 444.340190 L 422.521527 444.314038 L 422.186501 444.287340 L 421.851707 444.260096 L 421.517144 444.232307 L 421.182814 444.203973 L 420.848718 444.175094 L 420.514856 444.145672 L 420.181230 444.115707 L 419.847839 444.085199 L 419.514685 444.054149 L 419.181769 444.022557 L 418.849091 443.990423 L 418.516652 443.957749 L 418.184453 443.924534 L 417.852495 443.890779 L 417.520778 443.856485 L 417.189304 443.821653 L 416.858072 443.786282 L 416.527085 443.750373 L 416.196342 443.713926 L 415.865845 443.676943 L 415.535594 443.639423 L 415.205590 443.601368 L 414.875834 443.562777 L 414.546326 443.523651 L 414.217068 443.483991 L 413.888060 443.443797 L 413.559303 443.403070 L 413.230797 443.361810 L 412.902545 443.320017 L 412.574545 443.277693 L 412.246799 443.234837 L 411.919308 443.191451 L 411.592073 443.147534 L 411.265094 443.103088 L 410.938373 443.058112 L 410.611909 443.012608 L 410.285704 442.966575 L 409.959758 442.920015 L 409.634072 442.872927 L 409.308648 442.825313 L 408.983485 442.777173 L 408.658585 442.728507 L 408.333948 442.679316 L 408.009575 442.629600 L 407.685467 442.579361 L 407.361625 442.528598 L 407.038049 442.477312 L 406.714740 442.425503 L 406.391698 442.373173 L 406.068926 442.320321 L 405.746423 442.266948 L 405.424190 442.213055 L 405.102228 442.158643 L 404.780537 442.103711 L 404.459119 442.048260 L 404.137975 441.992291 L 403.817104 441.935804 L 403.496508 441.878801 L 403.176187 441.821280 L 402.856142 441.763244 L 402.536375 441.704693 L 402.216885 441.645626 L 401.897673 441.586045 L 401.578741 441.525950 L 401.260089 441.465342 L 400.941717 441.404221 L 400.623627 441.342588 L 400.305819 441.280443 L 399.988293 441.217787 L 399.671052 441.154621 L 399.354095 441.090945 L 399.037423 441.026759 L 398.721037 440.962064 L 398.404937 440.896861 L 398.089125 440.831151 L 397.773601 440.764933 L 397.458366 440.698208 L 397.143420 440.630977 L 396.828765 440.563241 L 396.514401 440.495000 L 396.200328 440.426255 L 395.886549 440.357005 L 395.573062 440.287253 L 395.259869 440.216997 L 394.946971 440.146240 L 394.634368 440.074981 L 394.322062 440.003221 L 394.010052 439.930960 L 393.698340 439.858200 Z " style="stroke-width: 1; stroke-linecap: round; fill: rgb(0%,0%,100%); stroke: rgb(0%,0%,100%);"/>
			<path d="M 468.899685 372.468904 L 468.272328 373.764326 L 467.635921 375.055326 L 466.990497 376.341841 L 466.336085 377.623808 L 465.672719 378.901165 L 465.000431 380.173848 L 464.319254 381.441795 L 463.629220 382.704945 L 462.930365 383.963236 L 462.222721 385.216605 L 461.506324 386.464992 L 460.781210 387.708335 L 460.047412 388.946574 L 459.304968 390.179648 L 458.553913 391.407496 L 457.794285 392.630058 L 457.026120 393.847275 L 456.249457 395.059087 L 455.464332 396.265434 L 454.670786 397.466258 L 453.868856 398.661500 L 453.058582 399.851100 L 452.240003 401.035002 L 451.413160 402.213146 L 450.578093 403.385476 L 449.734843 404.551934 L 448.883451 405.712462 L 448.023959 406.867004 L 447.156409 408.015504 L 446.280844 409.157904 L 445.397306 410.294150 L 444.505838 411.424185 L 443.606485 412.547955 L 442.699290 413.665404 L 441.784298 414.776477 L 440.861554 415.881120 L 439.931102 416.979279 L 438.992989 418.070901 L 438.047259 419.155931 L 437.093961 420.234316 L 436.133139 421.306005 L 435.164842 422.370944 L 434.189117 423.429081 L 433.206011 424.480364 L 432.215572 425.524742 L 431.217850 426.562164 L 430.212893 427.592579 L 429.200750 428.615936 L 428.181470 429.632186 L 427.155105 430.641278 L 426.121703 431.643164 L 425.081315 432.637794 L 424.033994 433.625119 L 422.979788 434.605091 L 421.918752 435.577662 L 420.850935 436.542785 L 419.776391 437.500412 L 432.456561 451.829328 L 433.631062 450.782619 L 434.798211 449.727718 L 435.957949 448.664674 L 437.110219 447.593542 L 438.254966 446.514373 L 439.392134 445.427219 L 440.521666 444.332135 L 441.643508 443.229174 L 442.757604 442.118389 L 443.863900 440.999836 L 444.962342 439.873568 L 446.052875 438.739642 L 447.135447 437.598112 L 448.210005 436.449035 L 449.276496 435.292467 L 450.334867 434.128464 L 451.385067 432.957084 L 452.427045 431.778383 L 453.460749 430.592420 L 454.486129 429.399252 L 455.503134 428.198939 L 456.511715 426.991538 L 457.511823 425.777109 L 458.503408 424.555712 L 459.486422 423.327406 L 460.460816 422.092251 L 461.426544 420.850308 L 462.383557 419.601637 L 463.331809 418.346301 L 464.271254 417.084359 L 465.201845 415.815875 L 466.123537 414.540910 L 467.036285 413.259526 L 467.940044 411.971787 L 468.834769 410.677755 L 469.720418 409.377493 L 470.596946 408.071067 L 471.464311 406.758538 L 472.322470 405.439972 L 473.171381 404.115434 L 474.011003 402.784988 L 474.841294 401.448698 L 475.662214 400.106632 L 476.473723 398.758854 L 477.275781 397.405430 L 478.068348 396.046427 L 478.851387 394.681911 L 479.624857 393.311949 L 480.388723 391.936609 L 481.142945 390.555956 L 481.887488 389.170060 L 482.622315 387.778988 L 483.347389 386.382807 L 484.062676 384.981588 L 484.768141 383.575397 L 485.463747 382.164304 L 486.149463 380.748378 L 499.086797 386.957983 L 498.985919 386.615085 L 498.884546 386.272539 L 498.782678 385.930346 L 498.680316 385.588506 L 498.577461 385.247021 L 498.474112 384.905890 L 498.370271 384.565115 L 498.265939 384.224696 L 498.161116 383.884633 L 498.055802 383.544928 L 497.949999 383.205581 L 497.843707 382.866593 L 497.736927 382.527965 L 497.629659 382.189696 L 497.521904 381.851789 L 497.413663 381.514243 L 497.304937 381.177059 L 497.195725 380.840237 L 497.086030 380.503780 L 496.975850 380.167686 L 496.865188 379.831957 L 496.754044 379.496594 L 496.642418 379.161596 L 496.530312 378.826965 L 496.417725 378.492702 L 496.304658 378.158807 L 496.191113 377.825280 L 496.077090 377.492123 L 495.962589 377.159336 L 495.847612 376.826919 L 495.732158 376.494874 L 495.616229 376.163201 L 495.499826 375.831900 L 495.382948 375.500973 L 495.265597 375.170419 L 495.147773 374.840240 L 495.029477 374.510436 L 494.910710 374.181008 L 494.791473 373.851956 L 494.671765 373.523282 L 494.551588 373.194985 L 494.430943 372.867066 L 494.309830 372.539527 L 494.188250 372.212367 L 494.066203 371.885587 L 493.943690 371.559189 L 493.820713 371.233171 L 493.697271 370.907536 L 493.573366 370.582284 L 493.448997 370.257415 L 493.324166 369.932930 L 493.198874 369.608830 L 493.073121 369.285116 L 492.946907 368.961787 L 492.820235 368.638844 L 492.693103 368.316289 L 492.565513 367.994121 L 492.437466 367.672342 L 492.308963 367.350952 L 492.180003 367.029952 L 492.050589 366.709342 L 491.920719 366.389123 L 491.790396 366.069295 L 491.659620 365.749859 L 491.528391 365.430816 L 491.396711 365.112166 L 491.264580 364.793910 L 491.131998 364.476049 L 490.998967 364.158583 L 490.865488 363.841513 L 490.731560 363.524839 L 490.597184 363.208562 L 490.462362 362.892682 L 490.327094 362.577201 L 490.191381 362.262118 L 490.055223 361.947435 L 489.918622 361.633152 L 489.781577 361.319269 L 489.644090 361.005787 L 489.506161 360.692708 L 489.367792 360.380030 L 489.228982 360.067756 L 489.089733 359.755885 L 488.950045 359.444418 L 488.809919 359.133356 L 488.669356 358.822699 L 488.528356 358.512448 L 488.386920 358.202603 L 488.245050 357.893166 L 488.102745 357.584136 L 487.960006 357.275514 L 487.816834 356.967301 L 487.673230 356.659498 L 487.529195 356.352105 L 487.384729 356.045122 L 487.239833 355.738550 L 487.094508 355.432390 L 486.948754 355.126642 L 486.802573 354.821307 L 486.655964 354.516385 L 486.655964 354.516385 L 486.351212 354.662912 L 486.046385 354.808850 L 485.741485 354.954198 L 485.436512 355.098957 L 485.131468 355.243127 L 484.826352 355.386707 L 484.521167 355.529698 L 484.215913 355.672099 L 483.910591 355.813911 L 483.605202 355.955134 L 483.299747 356.095768 L 482.994227 356.235813 L 482.688642 356.375268 L 482.382995 356.514135 L 482.077285 356.652412 L 481.771513 356.790100 L 481.465681 356.927199 L 481.159789 357.063709 L 480.853839 357.199630 L 480.547831 357.334962 L 480.241767 357.469706 L 479.935646 357.603860 L 479.629471 357.737426 L 479.323241 357.870403 L 479.016959 358.002791 L 478.710624 358.134591 L 478.404238 358.265802 L 478.097802 358.396424 L 477.791317 358.526458 L 477.484783 358.655903 L 477.178202 358.784760 L 476.871574 358.913029 L 476.564901 359.040709 L 476.258182 359.167801 L 475.951421 359.294305 L 475.644616 359.420221 L 475.337769 359.545549 L 475.030882 359.670289 L 474.723954 359.794440 L 474.416987 359.918004 L 474.109983 360.040980 L 473.802940 360.163369 L 473.495862 360.285170 L 473.188748 360.406383 L 472.881600 360.527008 L 472.574418 360.647046 L 472.267203 360.766497 L 471.959957 360.885361 L 471.652680 361.003637 L 471.345373 361.121326 L 471.038037 361.238428 L 470.730673 361.354943 L 470.423282 361.470871 L 470.115865 361.586213 L 469.808423 361.700967 L 469.500956 361.815135 L 469.193466 361.928717 L 468.885954 362.041712 L 468.578420 362.154120 L 468.270865 362.265942 L 467.963291 362.377178 L 467.655698 362.487828 L 467.348087 362.597892 L 467.040459 362.707371 L 466.732816 362.816263 L 466.425157 362.924569 L 466.117484 363.032290 L 465.809797 363.139426 L 465.502099 363.245976 L 465.194389 363.351941 L 464.886668 363.457320 L 464.578938 363.562115 L 464.271200 363.666324 L 463.963454 363.769949 L 463.655700 363.872989 L 463.347941 363.975444 L 463.040178 364.077315 L 462.732410 364.178602 L 462.424639 364.279304 L 462.116865 364.379422 L 461.809091 364.478956 L 461.501316 364.577905 L 461.193542 364.676272 L 460.885769 364.774054 L 460.577998 364.871253 L 460.270231 364.967869 L 459.962468 365.063901 L 459.654710 365.159350 L 459.346959 365.254216 L 459.039214 365.348499 L 458.731477 365.442199 L 458.423749 365.535317 L 458.116031 365.627852 L 457.808323 365.719805 L 457.500627 365.811175 L 457.192943 365.901964 L 456.885273 365.992170 L 456.577617 366.081795 L 456.269976 366.170838 L 455.962351 366.259299 Z " style="stroke-width: 1; stroke-linecap: round; fill: rgb(67%,84%,90%); stroke: rgb(67%,84%,90%);"/>
			<path d="M 476.159634 211.516210 L 476.180306 211.571598 L 476.200962 211.626993 L 476.221602 211.682393 L 476.242226 211.737799 L 476.262834 211.793212 L 476.283426 211.848630 L 476.304003 211.904054 L 476.324563 211.959484 L 476.345108 212.014920 L 476.365636 212.070362 L 476.386149 212.125810 L 476.406645 212.181263 L 476.427126 212.236723 L 476.447591 212.292188 L 476.468040 212.347659 L 476.488472 212.403137 L 476.508889 212.458620 L 476.529290 212.514108 L 476.549675 212.569603 L 476.570045 212.625104 L 476.590398 212.680610 L 476.610735 212.736123 L 476.631056 212.791641 L 476.651361 212.847165 L 476.671651 212.902695 L 476.691924 212.958230 L 476.712181 213.013772 L 476.732423 213.069319 L 476.752648 213.124872 L 476.772858 213.180431 L 476.793051 213.235996 L 476.813229 213.291566 L 476.833390 213.347143 L 476.853536 213.402725 L 476.873665 213.458313 L 476.893779 213.513906 L 476.913877 213.569506 L 476.933958 213.625111 L 476.954024 213.680722 L 476.974074 213.736339 L 476.994107 213.791962 L 477.014125 213.847590 L 477.034127 213.903224 L 477.054113 213.958864 L 477.074082 214.014509 L 477.094036 214.070161 L 477.113974 214.125818 L 477.133896 214.181480 L 477.153801 214.237149 L 477.173691 214.292823 L 477.193565 214.348503 L 477.213423 214.404188 L 477.233264 214.459880 L 477.253090 214.515577 L 477.272900 214.571280 L 477.292694 214.626988 L 477.312471 214.682702 L 495.344835 208.284389 L 495.323217 208.223492 L 495.301582 208.162602 L 495.279930 208.101717 L 495.258260 208.040839 L 495.236572 207.979967 L 495.214867 207.919102 L 495.193145 207.858242 L 495.171405 207.797389 L 495.149647 207.736542 L 495.127872 207.675701 L 495.106080 207.614867 L 495.084270 207.554039 L 495.062443 207.493217 L 495.040598 207.432401 L 495.018735 207.371592 L 494.996855 207.310789 L 494.974958 207.249992 L 494.953043 207.189202 L 494.931111 207.128418 L 494.909161 207.067640 L 494.887194 207.006868 L 494.865209 206.946103 L 494.843207 206.885344 L 494.821188 206.824592 L 494.799151 206.763845 L 494.777096 206.703105 L 494.755024 206.642372 L 494.732935 206.581645 L 494.710828 206.520924 L 494.688704 206.460209 L 494.666562 206.399501 L 494.644403 206.338799 L 494.622226 206.278104 L 494.600032 206.217415 L 494.577820 206.156732 L 494.555591 206.096056 L 494.533345 206.035386 L 494.511081 205.974723 L 494.488800 205.914066 L 494.466501 205.853415 L 494.444185 205.792771 L 494.421851 205.732133 L 494.399500 205.671502 L 494.377132 205.610877 L 494.354746 205.550258 L 494.332342 205.489646 L 494.309922 205.429040 L 494.287483 205.368441 L 494.265028 205.307848 L 494.242555 205.247262 L 494.220064 205.186682 L 494.197557 205.126109 L 494.175031 205.065542 L 494.152489 205.004982 L 494.129929 204.944428 L 494.107351 204.883880 L 494.084757 204.823339 L 507.528598 199.803686 L 475.529791 186.273751 L 462.715792 216.535862 Z " style="stroke-width: 1; stroke-linecap: round; fill: rgb(0%,0%,100%); stroke: rgb(0%,0%,100%);"/>
			<path d="M 309.610049 79.444056 L 310.209166 79.521728 L 310.808052 79.601160 L 311.406702 79.682350 L 312.005110 79.765297 L 312.603273 79.850003 L 313.201184 79.936464 L 313.798839 80.024682 L 314.396232 80.114654 L 314.993358 80.206381 L 315.590212 80.299861 L 316.186789 80.395093 L 316.783084 80.492078 L 317.379092 80.590813 L 317.974806 80.691299 L 318.570223 80.793533 L 319.165338 80.897516 L 319.760144 81.003247 L 320.354637 81.110724 L 320.948812 81.219947 L 321.542664 81.330914 L 322.136187 81.443625 L 322.729376 81.558079 L 323.322227 81.674275 L 323.914734 81.792211 L 324.506892 81.911888 L 325.098696 82.033302 L 325.690141 82.156455 L 326.281221 82.281344 L 326.871932 82.407969 L 327.462269 82.536328 L 328.052226 82.666420 L 328.641799 82.798245 L 329.230981 82.931801 L 329.819769 83.067086 L 330.408157 83.204101 L 330.996141 83.342843 L 331.583714 83.483311 L 332.170872 83.625504 L 332.757609 83.769422 L 333.343922 83.915062 L 333.929804 84.062423 L 334.515251 84.211505 L 335.100258 84.362306 L 335.684819 84.514824 L 336.268930 84.669058 L 336.852585 84.825007 L 337.435779 84.982670 L 338.018508 85.142046 L 338.600766 85.303131 L 339.182549 85.465927 L 339.763851 85.630430 L 340.344668 85.796640 L 340.924993 85.964556 L 341.504823 86.134175 L 342.084153 86.305496 L 342.662976 86.478518 L 343.241289 86.653240 L 348.801915 68.345209 L 348.169805 68.154235 L 347.537137 67.965118 L 346.903917 67.777859 L 346.270149 67.592462 L 345.635840 67.408926 L 345.000994 67.227255 L 344.365617 67.047449 L 343.729715 66.869510 L 343.093293 66.693439 L 342.456357 66.519238 L 341.818912 66.346909 L 341.180963 66.176453 L 340.542517 66.007871 L 339.903578 65.841165 L 339.264152 65.676337 L 338.624245 65.513387 L 337.983862 65.352317 L 337.343009 65.193129 L 336.701691 65.035824 L 336.059913 64.880403 L 335.417682 64.726868 L 334.775003 64.575220 L 334.131881 64.425460 L 333.488322 64.277590 L 332.844332 64.131610 L 332.199915 63.987523 L 331.555079 63.845329 L 330.909827 63.705029 L 330.264166 63.566626 L 329.618101 63.430119 L 328.971638 63.295510 L 328.324783 63.162801 L 327.677540 63.031992 L 327.029916 62.903085 L 326.381917 62.776080 L 325.733547 62.650980 L 325.084812 62.527784 L 324.435719 62.406494 L 323.786272 62.287111 L 323.136477 62.169636 L 322.486340 62.054070 L 321.835866 61.940414 L 321.185061 61.828669 L 320.533931 61.718836 L 319.882481 61.610916 L 319.230717 61.504910 L 318.578644 61.400818 L 317.926269 61.298642 L 317.273596 61.198383 L 316.620632 61.100041 L 315.967381 61.003617 L 315.313850 60.909113 L 314.660045 60.816528 L 314.005970 60.725864 L 313.351632 60.637122 L 312.697036 60.550301 L 312.042187 60.465404 L 313.866291 46.231415 L 286.982862 68.237416 L 307.785946 93.678045 Z " style="stroke-width: 1; stroke-linecap: round; fill: rgb(67%,84%,90%); stroke: rgb(67%,84%,90%);"/>
			<path d="M 260.071558 127.353206 L 258.540783 127.590275 L 257.012409 127.842354 L 255.486581 128.109419 L 253.963448 128.391443 L 252.443156 128.688400 L 250.925850 129.000262 L 249.411678 129.326997 L 247.900785 129.668575 L 246.393317 130.024963 L 244.889419 130.396126 L 243.389235 130.782029 L 241.892910 131.182634 L 240.400588 131.597904 L 238.912413 132.027797 L 237.428528 132.472273 L 235.949077 132.931289 L 234.474200 133.404800 L 233.004042 133.892761 L 231.538742 134.395125 L 230.078443 134.911844 L 228.623284 135.442868 L 227.173406 135.988145 L 225.728949 136.547624 L 224.290051 137.121250 L 222.856852 137.708968 L 221.429489 138.310722 L 220.008100 138.926453 L 218.592821 139.556102 L 217.183789 140.199609 L 215.781139 140.856912 L 214.385007 141.527947 L 212.995527 142.212650 L 211.612832 142.910954 L 210.237057 143.622794 L 208.868333 144.348099 L 207.506793 145.086800 L 206.152566 145.838827 L 204.805785 146.604106 L 203.466578 147.382564 L 202.135074 148.174126 L 200.811402 148.978716 L 199.495689 149.796257 L 198.188061 150.626668 L 196.888646 151.469872 L 195.597567 152.325785 L 194.314949 153.194327 L 193.040916 154.075413 L 191.775590 154.968959 L 190.519094 155.874878 L 189.271548 156.793083 L 188.033071 157.723486 L 186.803785 158.665997 L 185.583806 159.620526 L 184.373253 160.586980 L 183.172242 161.565267 L 181.980888 162.555292 L 180.799307 163.556960 L 168.355033 149.022705 L 169.679836 147.899623 L 171.015597 146.789595 L 172.362185 145.692728 L 173.719472 144.609127 L 175.087326 143.538898 L 176.465617 142.482143 L 177.854212 141.438964 L 179.252976 140.409461 L 180.661775 139.393734 L 182.080474 138.391879 L 183.508935 137.403995 L 184.947021 136.430176 L 186.394595 135.470515 L 187.851515 134.525105 L 189.317643 133.594037 L 190.792836 132.677401 L 192.276953 131.775285 L 193.769852 130.887776 L 195.271387 130.014959 L 196.781415 129.156919 L 198.299790 128.313738 L 199.826366 127.485497 L 201.360995 126.672276 L 202.903531 125.874153 L 204.453825 125.091205 L 206.011727 124.323508 L 207.577087 123.571135 L 209.149755 122.834160 L 210.729579 122.112652 L 212.316407 121.406681 L 213.910086 120.716316 L 215.510462 120.041623 L 217.117383 119.382666 L 218.730692 118.739510 L 220.350235 118.112215 L 221.975856 117.500844 L 223.607397 116.905454 L 225.244703 116.326102 L 226.887614 115.762845 L 228.535974 115.215737 L 230.189623 114.684831 L 231.848402 114.170177 L 233.512152 113.671825 L 235.180712 113.189823 L 236.853921 112.724218 L 238.531619 112.275054 L 240.213643 111.842375 L 241.899832 111.426223 L 243.590024 111.026636 L 245.284055 110.643655 L 246.981763 110.277315 L 248.682984 109.927653 L 250.387555 109.594701 L 252.095310 109.278492 L 253.806087 108.979056 L 255.519719 108.696422 L 257.236042 108.430617 L 255.109405 94.238675 L 255.414862 94.434944 L 255.719701 94.631699 L 256.023921 94.828938 L 256.327520 95.026660 L 256.630498 95.224865 L 256.932854 95.423550 L 257.234588 95.622715 L 257.535699 95.822357 L 257.836186 96.022476 L 258.136047 96.223069 L 258.435284 96.424137 L 258.733894 96.625677 L 259.031877 96.827688 L 259.329233 97.030168 L 259.625960 97.233117 L 259.922058 97.436533 L 260.217526 97.640414 L 260.512363 97.844759 L 260.806569 98.049566 L 261.100143 98.254835 L 261.393084 98.460564 L 261.685392 98.666752 L 261.977065 98.873396 L 262.268104 99.080497 L 262.558507 99.288051 L 262.848273 99.496059 L 263.137403 99.704518 L 263.425895 99.913427 L 263.713748 100.122785 L 264.000962 100.332591 L 264.287537 100.542842 L 264.573471 100.753538 L 264.858764 100.964677 L 265.143415 101.176258 L 265.427423 101.388279 L 265.710788 101.600739 L 265.993510 101.813637 L 266.275586 102.026970 L 266.557018 102.240739 L 266.837804 102.454941 L 267.117943 102.669575 L 267.397435 102.884639 L 267.676279 103.100132 L 267.954474 103.316053 L 268.232020 103.532400 L 268.508917 103.749173 L 268.785163 103.966368 L 269.060758 104.183986 L 269.335701 104.402024 L 269.609992 104.620481 L 269.883629 104.839357 L 270.156613 105.058648 L 270.428943 105.278355 L 270.700618 105.498475 L 270.971637 105.719007 L 271.242000 105.939949 L 271.511707 106.161301 L 271.780755 106.383061 L 272.049146 106.605227 L 272.316878 106.827798 L 272.583951 107.050773 L 272.850365 107.274149 L 273.116117 107.497927 L 273.381209 107.722103 L 273.645639 107.946678 L 273.909406 108.171649 L 274.172511 108.397014 L 274.434953 108.622773 L 274.696730 108.848925 L 274.957843 109.075467 L 275.218291 109.302398 L 275.478073 109.529716 L 275.737188 109.757422 L 275.995637 109.985512 L 276.253418 110.213985 L 276.510531 110.442840 L 276.766976 110.672076 L 277.022751 110.901692 L 277.277857 111.131684 L 277.532292 111.362053 L 277.786056 111.592797 L 278.039149 111.823914 L 278.291571 112.055403 L 278.543319 112.287262 L 278.794395 112.519491 L 279.044797 112.752087 L 279.294525 112.985048 L 279.543578 113.218375 L 279.791957 113.452065 L 280.039659 113.686116 L 280.286685 113.920528 L 280.533035 114.155299 L 280.778707 114.390427 L 281.023702 114.625910 L 281.268018 114.861749 L 281.511655 115.097940 L 281.754613 115.334483 L 281.996891 115.571376 L 282.238489 115.808617 L 282.479406 116.046206 L 282.479406 116.046206 L 282.241987 116.286951 L 282.005254 116.528032 L 281.769207 116.769448 L 281.533847 117.011197 L 281.299174 117.253278 L 281.065189 117.495689 L 280.831892 117.738429 L 280.599284 117.981497 L 280.367365 118.224890 L 280.136135 118.468608 L 279.905596 118.712649 L 279.675747 118.957011 L 279.446588 119.201693 L 279.218121 119.446694 L 278.990346 119.692011 L 278.763263 119.937645 L 278.536873 120.183592 L 278.311176 120.429852 L 278.086172 120.676423 L 277.861863 120.923304 L 277.638247 121.170493 L 277.415327 121.417989 L 277.193102 121.665790 L 276.971572 121.913894 L 276.750739 122.162301 L 276.530601 122.411009 L 276.311161 122.660016 L 276.092418 122.909320 L 275.874373 123.158921 L 275.657026 123.408817 L 275.440377 123.659006 L 275.224427 123.909488 L 275.009177 124.160259 L 274.794626 124.411319 L 274.580775 124.662667 L 274.367624 124.914301 L 274.155175 125.166219 L 273.943426 125.418420 L 273.732379 125.670903 L 273.522034 125.923665 L 273.312391 126.176706 L 273.103451 126.430024 L 272.895214 126.683617 L 272.687680 126.937485 L 272.480850 127.191625 L 272.274724 127.446036 L 272.069303 127.700716 L 271.864586 127.955664 L 271.660575 128.210880 L 271.457268 128.466360 L 271.254668 128.722103 L 271.052774 128.978109 L 270.851586 129.234375 L 270.651106 129.490900 L 270.451332 129.747683 L 270.252266 130.004722 L 270.053907 130.262015 L 269.856257 130.519562 L 269.659315 130.777360 L 269.463082 131.035408 L 269.267558 131.293705 L 269.072743 131.552249 L 268.878638 131.811038 L 268.685243 132.070071 L 268.492559 132.329347 L 268.300584 132.588864 L 268.109321 132.848621 L 267.918769 133.108616 L 267.728928 133.368847 L 267.539799 133.629314 L 267.351383 133.890013 L 267.163678 134.150945 L 266.976686 134.412108 L 266.790407 134.673500 L 266.604841 134.935119 L 266.419988 135.196964 L 266.235849 135.459034 L 266.052424 135.721327 L 265.869713 135.983841 L 265.687717 136.246575 L 265.506435 136.509528 L 265.325869 136.772698 L 265.146017 137.036083 L 264.966881 137.299683 L 264.788461 137.563495 L 264.610756 137.827518 L 264.433768 138.091750 L 264.257496 138.356190 L 264.081941 138.620837 L 263.907102 138.885689 L 263.732981 139.150744 L 263.559577 139.416002 L 263.386891 139.681459 L 263.214922 139.947116 L 263.043672 140.212970 L 262.873139 140.479020 L 262.703325 140.745264 L 262.534230 141.011701 L 262.365853 141.278330 L 262.198195 141.545148 Z " style="stroke-width: 1; stroke-linecap: round; fill: rgb(0%,0%,100%); stroke: rgb(0%,0%,100%);"/>
			<path d="M 116.699141 163.060050 L 116.887253 162.799935 L 117.075771 162.540113 L 117.264694 162.280586 L 117.454022 162.021354 L 117.643755 161.762417 L 117.833891 161.503777 L 118.024431 161.245435 L 118.215373 160.987390 L 118.406718 160.729643 L 118.598465 160.472195 L 118.790614 160.215047 L 118.983164 159.958198 L 119.176114 159.701651 L 119.369465 159.445405 L 119.563215 159.189462 L 119.757364 158.933820 L 119.951912 158.678483 L 120.146859 158.423449 L 120.342203 158.168719 L 120.537944 157.914295 L 120.734083 157.660177 L 120.930617 157.406365 L 121.127548 157.152860 L 121.324874 156.899663 L 121.522595 156.646774 L 121.720710 156.394194 L 121.919219 156.141923 L 122.118122 155.889963 L 122.317417 155.638313 L 122.517105 155.386975 L 122.717186 155.135948 L 122.917657 154.885234 L 123.118520 154.634833 L 123.319773 154.384746 L 123.521417 154.134974 L 123.723449 153.885516 L 123.925871 153.636374 L 124.128682 153.387549 L 124.331880 153.139040 L 124.535467 152.890848 L 124.739440 152.642975 L 124.943800 152.395420 L 125.148546 152.148184 L 125.353677 151.901268 L 125.559194 151.654673 L 125.765095 151.408399 L 125.971380 151.162446 L 126.178049 150.916816 L 126.385101 150.671508 L 126.592536 150.426524 L 126.800353 150.181864 L 127.008551 149.937528 L 127.217130 149.693518 L 127.426090 149.449833 L 127.635430 149.206475 L 127.845150 148.963444 L 128.055248 148.720741 L 113.598567 136.186431 L 113.368925 136.451712 L 113.139697 136.717351 L 112.910883 136.983347 L 112.682485 137.249699 L 112.454503 137.516408 L 112.226937 137.783473 L 111.999789 138.050892 L 111.773058 138.318665 L 111.546745 138.586792 L 111.320851 138.855272 L 111.095377 139.124104 L 110.870322 139.393287 L 110.645687 139.662822 L 110.421474 139.932707 L 110.197682 140.202941 L 109.974312 140.473524 L 109.751364 140.744456 L 109.528840 141.015735 L 109.306739 141.287361 L 109.085062 141.559333 L 108.863811 141.831651 L 108.642984 142.104314 L 108.422583 142.377321 L 108.202609 142.650672 L 107.983061 142.924366 L 107.763941 143.198402 L 107.545249 143.472780 L 107.326985 143.747499 L 107.109150 144.022558 L 106.891745 144.297956 L 106.674770 144.573694 L 106.458225 144.849770 L 106.242112 145.126184 L 106.026430 145.402934 L 105.811180 145.680021 L 105.596363 145.957443 L 105.381980 146.235200 L 105.168030 146.513292 L 104.954514 146.791717 L 104.741433 147.070475 L 104.528787 147.349565 L 104.316578 147.628987 L 104.104804 147.908739 L 103.893467 148.188822 L 103.682568 148.469234 L 103.472107 148.749975 L 103.262084 149.031044 L 103.052500 149.312440 L 102.843355 149.594164 L 102.634650 149.876213 L 102.426386 150.158588 L 102.218563 150.441287 L 102.011181 150.724310 L 101.804241 151.007657 L 101.597744 151.291326 L 101.391689 151.575318 L 101.186078 151.859630 L 89.551281 143.459315 L 96.047062 177.588301 L 128.333938 171.460365 Z " style="stroke-width: 1; stroke-linecap: round; fill: rgb(67%,84%,90%); stroke: rgb(67%,84%,90%);"/>
			<path d="M 79.988534 313.555414 L 79.731009 311.759310 L 79.489338 309.961004 L 79.263541 308.160636 L 79.053633 306.358347 L 78.859633 304.554276 L 78.681554 302.748564 L 78.519411 300.941351 L 78.373216 299.132778 L 78.242981 297.322986 L 78.128716 295.512115 L 78.030430 293.700307 L 77.948130 291.887703 L 77.881823 290.074443 L 77.831514 288.260668 L 77.797207 286.446521 L 77.778904 284.632141 L 77.776608 282.817670 L 77.790317 281.003250 L 77.820032 279.189022 L 77.865750 277.375126 L 77.927466 275.561704 L 78.005177 273.748897 L 78.098877 271.936846 L 78.208557 270.125692 L 78.334211 268.315576 L 78.475827 266.506638 L 78.633394 264.699021 L 78.806901 262.892864 L 78.996335 261.088307 L 79.201679 259.285492 L 79.422919 257.484559 L 79.660037 255.685647 L 79.913014 253.888897 L 80.181831 252.094448 L 80.466467 250.302441 L 80.766901 248.513014 L 81.083107 246.726307 L 81.415063 244.942459 L 81.762741 243.161608 L 82.126116 241.383894 L 82.505158 239.609455 L 82.899838 237.838428 L 83.310126 236.070952 L 83.735989 234.307163 L 84.177395 232.547201 L 84.634309 230.791200 L 85.106696 229.039298 L 85.594518 227.291632 L 86.097738 225.548337 L 86.616316 223.809548 L 87.150213 222.075402 L 87.699387 220.346033 L 88.263795 218.621576 L 88.843392 216.902165 L 89.438135 215.187933 L 90.047976 213.479015 L 90.672869 211.775543 L 72.738758 205.106796 L 72.055735 206.968731 L 71.389165 208.836619 L 70.739097 210.710313 L 70.105583 212.589670 L 69.488672 214.474542 L 68.888413 216.364782 L 68.304851 218.260244 L 67.738033 220.160780 L 67.188002 222.066242 L 66.654801 223.976483 L 66.138471 225.891352 L 65.639054 227.810701 L 65.156587 229.734382 L 64.691108 231.662243 L 64.242654 233.594136 L 63.811259 235.529909 L 63.396957 237.469413 L 62.999781 239.412496 L 62.619760 241.359007 L 62.256925 243.308794 L 61.911304 245.261707 L 61.582923 247.217592 L 61.271809 249.176298 L 60.977986 251.137672 L 60.701476 253.101561 L 60.442300 255.067814 L 60.200480 257.036276 L 59.976034 259.006795 L 59.768979 260.979217 L 59.579332 262.953389 L 59.407107 264.929157 L 59.252317 266.906367 L 59.114975 268.884866 L 58.995092 270.864499 L 58.892676 272.845113 L 58.807736 274.826554 L 58.740278 276.808666 L 58.690308 278.791297 L 58.657829 280.774291 L 58.642844 282.757494 L 58.645354 284.740753 L 58.665360 286.723912 L 58.702858 288.706817 L 58.757847 290.689315 L 58.830322 292.671250 L 58.920278 294.652469 L 59.027707 296.632817 L 59.152601 298.612141 L 59.294951 300.590286 L 59.454745 302.567098 L 59.631971 304.542424 L 59.826615 306.516109 L 60.038663 308.488001 L 60.268096 310.457945 L 60.514899 312.425789 L 60.779050 314.391379 L 61.060531 316.354562 L 46.864529 318.453924 L 47.140113 318.681539 L 47.415910 318.908585 L 47.691920 319.135061 L 47.968142 319.360968 L 48.244574 319.586305 L 48.521216 319.811073 L 48.798067 320.035270 L 49.075126 320.258897 L 49.352391 320.481953 L 49.629863 320.704439 L 49.907540 320.926354 L 50.185420 321.147697 L 50.463505 321.368470 L 50.741791 321.588671 L 51.020279 321.808301 L 51.298967 322.027359 L 51.577855 322.245845 L 51.856941 322.463759 L 52.136225 322.681100 L 52.415706 322.897869 L 52.695383 323.114066 L 52.975255 323.329690 L 53.255320 323.544741 L 53.535579 323.759218 L 53.816029 323.973123 L 54.096671 324.186454 L 54.377503 324.399211 L 54.658525 324.611395 L 54.939735 324.823005 L 55.221132 325.034041 L 55.502716 325.244502 L 55.784486 325.454389 L 56.066440 325.663702 L 56.348578 325.872440 L 56.630899 326.080603 L 56.913402 326.288192 L 57.196085 326.495205 L 57.478949 326.701642 L 57.761992 326.907505 L 58.045213 327.112792 L 58.328611 327.317503 L 58.612186 327.521638 L 58.895936 327.725198 L 59.179861 327.928181 L 59.463959 328.130588 L 59.748229 328.332419 L 60.032672 328.533673 L 60.317285 328.734350 L 60.602068 328.934451 L 60.887020 329.133975 L 61.172139 329.332922 L 61.457426 329.531291 L 61.742879 329.729084 L 62.028497 329.926298 L 62.314279 330.122936 L 62.600225 330.318996 L 62.886333 330.514478 L 63.172602 330.709382 L 63.459032 330.903708 L 63.745622 331.097456 L 64.032370 331.290626 L 64.319276 331.483217 L 64.606338 331.675230 L 64.893557 331.866664 L 65.180930 332.057520 L 65.468458 332.247797 L 65.756138 332.437495 L 66.043971 332.626614 L 66.331955 332.815154 L 66.620089 333.003114 L 66.908372 333.190496 L 67.196804 333.377298 L 67.485384 333.563520 L 67.774109 333.749163 L 68.062981 333.934226 L 68.351997 334.118710 L 68.641157 334.302613 L 68.930460 334.485937 L 69.219904 334.668680 L 69.509490 334.850843 L 69.799216 335.032427 L 70.089080 335.213429 L 70.379083 335.393852 L 70.669223 335.573693 L 70.959499 335.752955 L 71.249911 335.931635 L 71.540457 336.109735 L 71.831137 336.287254 L 72.121949 336.464193 L 72.412893 336.640550 L 72.703967 336.816326 L 72.995172 336.991521 L 73.286505 337.166135 L 73.577966 337.340168 L 73.869554 337.513619 L 74.161268 337.686489 L 74.453107 337.858777 L 74.745071 338.030484 L 75.037157 338.201610 L 75.329366 338.372153 L 75.329366 338.372153 L 75.499815 338.080107 L 75.670656 337.788507 L 75.841888 337.497354 L 76.013510 337.206649 L 76.185521 336.916392 L 76.357921 336.626583 L 76.530709 336.337224 L 76.703884 336.048315 L 76.877445 335.759855 L 77.051391 335.471847 L 77.225723 335.184289 L 77.400438 334.897184 L 77.575536 334.610530 L 77.751017 334.324329 L 77.926879 334.038581 L 78.103122 333.753287 L 78.279744 333.468447 L 78.456746 333.184062 L 78.634127 332.900132 L 78.811885 332.616658 L 78.990019 332.333639 L 79.168530 332.051077 L 79.347416 331.768973 L 79.526676 331.487326 L 79.706310 331.206137 L 79.886317 330.925406 L 80.066695 330.645135 L 80.247445 330.365323 L 80.428565 330.085971 L 80.610055 329.807079 L 80.791914 329.528648 L 80.974141 329.250679 L 81.156735 328.973172 L 81.339695 328.696127 L 81.523021 328.419545 L 81.706712 328.143426 L 81.890766 327.867771 L 82.075184 327.592580 L 82.259965 327.317854 L 82.445106 327.043593 L 82.630609 326.769798 L 82.816472 326.496468 L 83.002694 326.223606 L 83.189274 325.951210 L 83.376211 325.679282 L 83.563506 325.407821 L 83.751156 325.136829 L 83.939162 324.866306 L 84.127522 324.596253 L 84.316235 324.326669 L 84.505301 324.057555 L 84.694719 323.788912 L 84.884488 323.520740 L 85.074607 323.253039 L 85.265076 322.985811 L 85.455893 322.719055 L 85.647058 322.452771 L 85.838570 322.186962 L 86.030429 321.921625 L 86.222632 321.656764 L 86.415180 321.392376 L 86.608072 321.128464 L 86.801307 320.865028 L 86.994884 320.602067 L 87.188802 320.339583 L 87.383061 320.077575 L 87.577659 319.816045 L 87.772596 319.554993 L 87.967871 319.294419 L 88.163484 319.034323 L 88.359432 318.774706 L 88.555716 318.515569 L 88.752335 318.256911 L 88.949288 317.998734 L 89.146574 317.741037 L 89.344192 317.483822 L 89.542141 317.227088 L 89.740421 316.970836 L 89.939031 316.715066 L 90.137969 316.459779 L 90.337236 316.204975 L 90.536830 315.950655 L 90.736750 315.696819 L 90.936996 315.443468 L 91.137567 315.190601 L 91.338462 314.938219 L 91.539680 314.686323 L 91.741220 314.434913 L 91.943081 314.183990 L 92.145264 313.933553 L 92.347766 313.683604 L 92.550587 313.434142 L 92.753726 313.185168 L 92.957182 312.936683 L 93.160955 312.688687 L 93.365043 312.441180 L 93.569446 312.194163 L 93.774164 311.947635 L 93.979194 311.701598 L 94.184536 311.456052 Z " style="stroke-width: 1; stroke-linecap: round; fill: rgb(0%,0%,100%); stroke: rgb(0%,0%,100%);"/>
			<path d="M 146.664043 362.227543 L 146.737737 362.355400 L 146.811550 362.483189 L 146.885482 362.610908 L 146.959534 362.738558 L 147.033705 362.866139 L 147.107996 362.993651 L 147.182405 363.121093 L 147.256934 363.248465 L 147.331582 363.375768 L 147.406349 363.503001 L 147.481234 363.630164 L 147.556239 363.757257 L 147.631362 363.884280 L 147.706604 364.011232 L 147.781965 364.138114 L 147.857444 364.264925 L 147.933042 364.391666 L 148.008758 364.518336 L 148.084593 364.644936 L 148.160546 364.771464 L 148.236617 364.897921 L 148.312806 365.024307 L 148.389114 365.150622 L 148.465539 365.276866 L 148.542083 365.403038 L 148.618744 365.529138 L 148.695524 365.655167 L 148.772421 365.781123 L 148.849435 365.907008 L 148.926568 366.032821 L 149.003818 366.158561 L 149.081186 366.284230 L 149.158671 366.409826 L 149.236273 366.535349 L 149.313993 366.660800 L 149.391830 366.786178 L 149.469784 366.911483 L 149.547855 367.036716 L 149.626044 367.161875 L 149.704349 367.286961 L 149.782771 367.411974 L 149.861310 367.536914 L 149.939966 367.661780 L 150.018738 367.786572 L 150.097628 367.911291 L 150.176633 368.035936 L 150.255756 368.160507 L 150.334994 368.285004 L 150.414349 368.409427 L 150.493820 368.533776 L 150.573408 368.658050 L 150.653111 368.782250 L 150.732931 368.906375 L 150.812867 369.030426 L 150.892919 369.154402 L 150.973086 369.278303 L 151.053369 369.402128 L 135.003527 379.818803 L 134.913513 379.679967 L 134.823628 379.541048 L 134.733873 379.402045 L 134.644248 379.262958 L 134.554753 379.123787 L 134.465389 378.984533 L 134.376154 378.845195 L 134.287050 378.705774 L 134.198076 378.566269 L 134.109233 378.426682 L 134.020520 378.287011 L 133.931938 378.147258 L 133.843487 378.007421 L 133.755166 377.867503 L 133.666976 377.727501 L 133.578917 377.587418 L 133.490989 377.447252 L 133.403192 377.307003 L 133.315527 377.166673 L 133.227992 377.026261 L 133.140589 376.885767 L 133.053317 376.745192 L 132.966177 376.604535 L 132.879168 376.463796 L 132.792291 376.322977 L 132.705545 376.182076 L 132.618932 376.041094 L 132.532450 375.900031 L 132.446100 375.758888 L 132.359882 375.617663 L 132.273796 375.476359 L 132.187842 375.334973 L 132.102021 375.193508 L 132.016331 375.051962 L 131.930774 374.910337 L 131.845350 374.768631 L 131.760058 374.626846 L 131.674899 374.484980 L 131.589872 374.343036 L 131.504978 374.201012 L 131.420217 374.058908 L 131.335589 373.916726 L 131.251093 373.774464 L 131.166731 373.632123 L 131.082502 373.489704 L 130.998406 373.347206 L 130.914443 373.204629 L 130.830614 373.061974 L 130.746918 372.919241 L 130.663355 372.776430 L 130.579926 372.633540 L 130.496631 372.490572 L 130.413469 372.347527 L 130.330442 372.204404 L 130.247548 372.061203 L 130.164787 371.917925 L 130.082161 371.774570 L 117.645750 378.934841 L 127.957877 345.493169 L 159.100454 355.067272 Z " style="stroke-width: 1; stroke-linecap: round; fill: rgb(67%,84%,90%); stroke: rgb(67%,84%,90%);"/>
			<path d="M 164.569372 387.300603 L 164.716589 387.468930 L 164.864045 387.637048 L 165.011739 387.804958 L 165.159670 387.972658 L 165.307839 388.140149 L 165.456245 388.307429 L 165.604888 388.474499 L 165.753767 388.641358 L 165.902883 388.808006 L 166.052234 388.974443 L 166.201821 389.140668 L 166.351644 389.306680 L 166.501701 389.472481 L 166.651994 389.638069 L 166.802520 389.803443 L 166.953281 389.968604 L 167.104276 390.133552 L 167.255504 390.298285 L 167.406965 390.462804 L 167.558660 390.627109 L 167.710586 390.791198 L 167.862746 390.955072 L 168.015137 391.118730 L 168.167760 391.282172 L 168.320614 391.445398 L 168.473699 391.608407 L 168.627015 391.771199 L 168.780562 391.933773 L 168.934339 392.096130 L 169.088345 392.258269 L 169.242581 392.420190 L 169.397046 392.581891 L 169.551741 392.743374 L 169.706664 392.904638 L 169.861815 393.065682 L 170.017194 393.226506 L 170.172801 393.387110 L 170.328635 393.547493 L 170.484696 393.707655 L 170.640984 393.867596 L 170.797498 394.027316 L 170.954239 394.186813 L 171.111205 394.346088 L 171.268397 394.505141 L 171.425814 394.663971 L 171.583456 394.822578 L 171.741322 394.980961 L 171.899412 395.139121 L 172.057727 395.297056 L 172.216265 395.454767 L 172.375026 395.612254 L 172.534010 395.769515 L 172.693217 395.926550 L 172.852646 396.083361 L 173.012297 396.239945 L 173.172170 396.396302 L 173.332264 396.552434 L 159.982894 410.260054 L 159.803394 410.084998 L 159.624143 409.909687 L 159.445140 409.734123 L 159.266387 409.558306 L 159.087882 409.382236 L 158.909627 409.205913 L 158.731622 409.029337 L 158.553867 408.852510 L 158.376363 408.675430 L 158.199110 408.498100 L 158.022109 408.320519 L 157.845359 408.142687 L 157.668861 407.964605 L 157.492616 407.786273 L 157.316623 407.607691 L 157.140884 407.428861 L 156.965398 407.249781 L 156.790166 407.070454 L 156.615189 406.890878 L 156.440465 406.711054 L 156.265997 406.530983 L 156.091784 406.350666 L 155.917827 406.170101 L 155.744125 405.989290 L 155.570680 405.808234 L 155.397492 405.626932 L 155.224561 405.445384 L 155.051887 405.263592 L 154.879470 405.081556 L 154.707312 404.899275 L 154.535412 404.716751 L 154.363771 404.533983 L 154.192389 404.350972 L 154.021266 404.167719 L 153.850404 403.984224 L 153.679801 403.800486 L 153.509459 403.616508 L 153.339377 403.432288 L 153.169557 403.247827 L 152.999998 403.063126 L 152.830701 402.878185 L 152.661666 402.693004 L 152.492894 402.507584 L 152.324384 402.321925 L 152.156138 402.136028 L 151.988155 401.949892 L 151.820436 401.763519 L 151.652982 401.576908 L 151.485792 401.390060 L 151.318866 401.202975 L 151.152206 401.015655 L 150.985811 400.828098 L 150.819683 400.640306 L 150.653820 400.452278 L 150.488224 400.264016 L 150.322895 400.075519 L 150.157833 399.886789 L 139.349179 409.326428 L 142.968886 374.518627 L 175.378026 377.860963 Z " style="stroke-width: 1; stroke-linecap: round; fill: rgb(0%,0%,100%); stroke: rgb(0%,0%,100%);"/>
			<polygon points="258.909919 424.852152, 250.725036 471.981347, 231.884735 442.742309" style="stroke-width: 1; stroke-linecap: round; fill: rgb(67%,84%,90%); stroke: rgb(67%,84%,90%);"/>
			<circle cx="283.46456692913387" cy="283.46456692913387" r="191.33858267716536" style="stroke-width: 1; stroke-linecap: butt; fill: none; stroke: rgb(0%,0%,0%);"/>
			<g transform=" matrix(0.663198, 0.748444, -0.748444, 0.663198, 442.083761, 462.472345)">
				<text style="font-family: Helvetica; font-size: 14px; fill: rgb(0%,0%,0%);" transform="translate(0,0) scale(1,-1)" x="0" y="0"> YP_RS22210 </text>
			</g>
			<g transform=" matrix(0.943953, 0.330081, -0.330081, 0.943953, 509.232786, 362.411032)">
				<text style="font-family: Helvetica; font-size: 14px; fill: rgb(0%,0%,0%);" transform="translate(0,0) scale(1,-1)" x="0" y="0"> YP_RS22215 </text>
			</g>
			<g transform=" matrix(0.892265, -0.451513, 0.451513, 0.892265, 496.870371, 175.474772)">
				<text style="font-family: Helvetica; font-size: 14px; fill: rgb(0%,0%,0%);" transform="translate(0,0) scale(1,-1)" x="0" y="0"> YP_RS22220 </text>
			</g>
			<g transform=" matrix(0.016345, -0.999866, 0.999866, 0.016345, 287.373783, 44.323288)">
				<text style="font-family: Helvetica; font-size: 14px; fill: rgb(0%,0%,0%);" transform="translate(0,0) scale(1,-1)" x="0" y="0"> YP_RS22225 </text>
			</g>
			<g transform=" matrix(0.005884, 0.999983, -0.999983, 0.005884, 282.620143, 139.963114)">
				<text style="font-family: Helvetica; font-size: 14px; fill: rgb(0%,0%,0%);" transform="translate(0,0) scale(1,-1)" x="0" y="0"> YP_RS22230 </text>
			</g>
			<g transform=" matrix(0.755555, 0.655085, -0.655085, 0.755555, 102.756057, 126.785699)">
				<text style="font-family: Helvetica; font-size: 14px; fill: rgb(0%,0%,0%);" transform="translate(0,0) scale(1,-1)" x="-92.61" y="0"> YP_RS22235 </text>
			</g>
			<g transform=" matrix(0.937297, 0.348531, -0.348531, 0.937297, 59.288174, 200.105236)">
				<text style="font-family: Helvetica; font-size: 14px; fill: rgb(0%,0%,0%);" transform="translate(0,0) scale(1,-1)" x="-92.61" y="0"> YP_RS22240 </text>
			</g>
			<g transform=" matrix(0.928835, -0.370494, 0.370494, 0.928835, 150.173118, 336.631940)">
				<text style="font-family: Helvetica; font-size: 14px; fill: rgb(0%,0%,0%);" transform="translate(0,0) scale(1,-1)" x="0" y="0"> YP_RS22245 </text>
			</g>
			<g transform=" matrix(0.839175, -0.543862, 0.543862, 0.839175, 163.039697, 361.510904)">
				<text style="font-family: Helvetica; font-size: 14px; fill: rgb(0%,0%,0%);" transform="translate(0,0) scale(1,-1)" x="0" y="0"> YP_RS22250 </text>
			</g>
			<g transform=" matrix(0.308084, -0.951359, 0.951359, 0.308084, 239.253283, 419.988346)">
				<text style="font-family: Helvetica; font-size: 14px; fill: rgb(0%,0%,0%);" transform="translate(0,0) scale(1,-1)" x="0" y="0"> YP_RS22255 </text>
			</g>
		</g>
	</g>
</svg>
